# xmcd
#
# Track frame offsets: 
#        150
#        15797
#        36005
#        51110
#        65470
#        78467
#        100913
#        114169
#        130830
#        151073
#        163695
#        181723
#
# Disc length: 2645 seconds
#
# Revision: 0
# Processed by: cddbd v1.5.2PL0 Copyright (c) Steve Scherf et al.
# Submitted via: ExactAudioCopy v0.95b3
#
DISCID=810a530c
DTITLE=Various Artist - Christmas With Nashville
DYEAR=2014
DGENRE=Vocal
TTITLE0=Clare Brown - Santa Baby
TTITLE1=Charles Esten [ft. Vince Gill] - Blue Christmas
TTITLE2=Jonathan Jackson - Christmas (Baby Please Come Home)
TTITLE3=Hayden Panettiere - White Christmas
TTITLE4=Connie Britton - You're A Mean One, Mr. Grinch
TTITLE5=Sam Palladio - River
TTITLE6=Connie Britton, Will Chase - Baby It's Cold Outside
TTITLE7=Aubrey Peeples - Merry Christmas Baby
TTITLE8=Chaley Rose - Have Yourself A Merry Little Christmas
TTITLE9=Lennon and Maisy - Christmas Coming Home
TTITLE10=Will Chase - O Little Town Of Bethlehem
TTITLE11=Nashville Cast - Celebrate Me Home
EXTD=
EXTT0=
EXTT1=
EXTT2=
EXTT3=
EXTT4=
EXTT5=
EXTT6=
EXTT7=
EXTT8=
EXTT9=
EXTT10=
EXTT11=
PLAYORDER=
